<svg width="189" height="103" viewBox="0 0 189 103" fill="none" xmlns="http://www.w3.org/2000/svg">
<path d="M4.94 31.6C5.74 32.88 7.08 34.56 8.96 36.64C10.84 38.68 12.78 40.54 14.78 42.22C16.78 43.86 18.4 44.82 19.64 45.1C21.16 45.1 22.3 44.54 23.06 43.42C23.82 42.26 24.2 40.7 24.2 38.74C24.2 37.3 23.74 35.94 22.82 34.66C21.94 33.34 20.82 32.12 19.46 31C18.14 29.88 16.36 28.52 14.12 26.92C11.4 24.96 9.24 23.3 7.64 21.94C6.04 20.54 4.66 18.94 3.5 17.14C2.38 15.3 1.82 13.32 1.82 11.2C1.82 7.84 3.04 5.26 5.48 3.46C7.96 1.62 11.4 0.699997 15.8 0.699997C19.2 0.699997 22.36 1.04 25.28 1.72C28.2 2.4 30.62 3.22 32.54 4.18L28.4 16C27.6 14.72 26.32 13.06 24.56 11.02C22.8 8.94 21 7.08 19.16 5.44C17.36 3.76 15.94 2.78 14.9 2.5C13.66 2.5 12.72 3.04 12.08 4.12C11.48 5.2 11.18 6.58 11.18 8.26C11.18 9.58 11.6 10.86 12.44 12.1C13.32 13.34 14.4 14.52 15.68 15.64C17 16.72 18.76 18.06 20.96 19.66C23.68 21.66 25.88 23.38 27.56 24.82C29.24 26.26 30.66 27.92 31.82 29.8C32.98 31.64 33.56 33.64 33.56 35.8C33.56 43.2 28.82 46.9 19.34 46.9C15.34 46.9 11.72 46.56 8.48 45.88C5.28 45.2 2.72 44.38 0.8 43.42L4.94 31.6ZM36.9856 31C36.9856 28.12 37.6856 25.48 39.0856 23.08C40.5256 20.64 42.4456 18.7 44.8456 17.26C47.2856 15.82 49.9056 15.1 52.7056 15.1C55.2656 15.1 57.6056 15.82 59.7256 17.26C61.8856 18.66 63.5656 20.44 64.7656 22.6C66.0056 24.76 66.6256 26.88 66.6256 28.96L46.3456 34.24C47.3056 37.32 48.5856 39.92 50.1856 42.04C51.8256 44.12 53.6456 45.16 55.6456 45.16C56.5656 44.96 57.7456 44.34 59.1856 43.3C60.6256 42.22 61.7856 41.14 62.6656 40.06L64.6456 42.94C63.0056 44.18 61.3656 45.16 59.7256 45.88C58.1256 46.56 56.0856 46.9 53.6056 46.9C50.5256 46.9 47.7056 46.2 45.1456 44.8C42.6256 43.36 40.6256 41.42 39.1456 38.98C37.7056 36.54 36.9856 33.88 36.9856 31ZM44.9056 26.14C44.9056 27.98 45.2056 30.08 45.8056 32.44L57.9856 29.32C57.7856 27.48 57.3456 25.6 56.6656 23.68C55.9856 21.76 55.0656 20.14 53.9056 18.82C52.7856 17.5 51.4456 16.84 49.8856 16.84C48.4056 16.84 47.2056 17.72 46.2856 19.48C45.3656 21.2 44.9056 23.42 44.9056 26.14ZM80.1716 38.62C80.1716 39.58 80.3316 40.36 80.6516 40.96C80.9716 41.56 81.6916 41.86 82.8116 41.86C85.4116 41.86 88.0716 40.6 90.7916 38.08V24.7L86.2316 18.4L98.5916 16V39.7L103.152 46H90.7916V40.3C87.2316 44.7 83.6116 46.9 79.9316 46.9C77.0516 46.9 75.0716 46.18 73.9916 44.74C72.9116 43.26 72.3716 41.22 72.3716 38.62V24.7L67.8116 18.4L80.1716 16V38.62ZM109.577 36.82C111.257 38.94 113.097 40.82 115.097 42.46C117.097 44.1 118.757 45.08 120.077 45.4C121.037 45.4 121.857 45.1 122.537 44.5C123.257 43.9 123.617 43.16 123.617 42.28C123.617 41.2 122.997 40.12 121.757 39.04C120.557 37.92 118.717 36.52 116.237 34.84C113.997 33.28 112.157 31.94 110.717 30.82C109.317 29.66 108.117 28.38 107.117 26.98C106.117 25.58 105.617 24.1 105.617 22.54C105.617 20.22 106.577 18.4 108.497 17.08C110.417 15.76 113.257 15.1 117.017 15.1C119.697 15.1 122.177 15.28 124.457 15.64C126.777 16 128.517 16.4 129.677 16.84L125.717 25.18C123.877 22.9 122.097 20.94 120.377 19.3C118.657 17.66 117.337 16.76 116.417 16.6C115.457 16.6 114.617 16.9 113.897 17.5C113.217 18.1 112.877 18.84 112.877 19.72C112.877 20.96 113.537 22.18 114.857 23.38C116.177 24.54 118.177 26 120.857 27.76C123.017 29.2 124.757 30.44 126.077 31.48C127.397 32.48 128.517 33.62 129.437 34.9C130.397 36.18 130.877 37.5 130.877 38.86C130.877 41.22 129.937 43.16 128.057 44.68C126.177 46.16 123.557 46.9 120.197 46.9C117.197 46.9 114.297 46.72 111.497 46.36C108.697 46 106.737 45.6 105.617 45.16L109.577 36.82ZM4.64 73.5H0.0800001V72H4.64V67.2C4.64 64.4 4.9 62.26 5.42 60.78C5.94 59.3 6.84 58.26 8.12 57.66C9.4 57.02 11.24 56.7 13.64 56.7C15.28 56.7 17.36 56.88 19.88 57.24C22.44 57.56 24.56 57.96 26.24 58.44L21.08 66.78C16.84 61.46 14.14 58.68 12.98 58.44C12.78 58.44 12.64 58.7 12.56 59.22C12.48 59.74 12.44 60.58 12.44 61.74V72H21.98V73.5H12.44V94.8L17 102H0.0800001L4.64 94.8V73.5ZM28.2223 61.92C28.2223 60.52 28.7423 59.3 29.7823 58.26C30.8223 57.22 32.0623 56.7 33.5023 56.7C34.9023 56.7 36.1223 57.22 37.1623 58.26C38.2023 59.3 38.7223 60.52 38.7223 61.92C38.7223 63.36 38.2023 64.6 37.1623 65.64C36.1223 66.68 34.9023 67.2 33.5023 67.2C32.0623 67.2 30.8223 66.68 29.7823 65.64C28.7423 64.6 28.2223 63.36 28.2223 61.92ZM29.5423 94.8V80.7L24.9823 74.4L37.3423 72V94.8L41.9023 102H24.9823L29.5423 94.8ZM48.5267 94.8V66.3L43.9667 59.1L56.3267 56.7V94.8L60.8867 102H43.9667L48.5267 94.8ZM67.7511 80.7L63.1911 74.4L75.5511 72V77.16C77.0711 75.36 78.6711 73.9 80.3511 72.78C82.0711 71.66 83.7911 71.1 85.5111 71.1C88.0711 71.1 89.9111 71.68 91.0311 72.84C92.1511 74 92.8111 75.62 93.0111 77.7C96.5711 73.3 100.111 71.1 103.631 71.1C106.511 71.1 108.491 71.84 109.571 73.32C110.651 74.76 111.191 76.78 111.191 79.38V94.8L115.751 102H99.4311L103.391 94.8V79.38C103.391 78.42 103.231 77.64 102.911 77.04C102.591 76.44 101.871 76.14 100.751 76.14C98.3911 76.14 95.8311 77.38 93.0711 79.86V94.8L97.6311 102H81.3111L85.2711 94.8V79.38C85.2711 78.42 85.1111 77.64 84.7911 77.04C84.4711 76.44 83.7511 76.14 82.6311 76.14C80.4711 76.14 78.1111 77.28 75.5511 79.56V94.8L79.5111 102H63.1911L67.7511 94.8V80.7ZM117.435 87C117.435 84.12 118.135 81.48 119.535 79.08C120.975 76.64 122.895 74.7 125.295 73.26C127.735 71.82 130.355 71.1 133.155 71.1C135.715 71.1 138.055 71.82 140.175 73.26C142.335 74.66 144.015 76.44 145.215 78.6C146.455 80.76 147.075 82.88 147.075 84.96L126.795 90.24C127.755 93.32 129.035 95.92 130.635 98.04C132.275 100.12 134.095 101.16 136.095 101.16C137.015 100.96 138.195 100.34 139.635 99.3C141.075 98.22 142.235 97.14 143.115 96.06L145.095 98.94C143.455 100.18 141.815 101.16 140.175 101.88C138.575 102.56 136.535 102.9 134.055 102.9C130.975 102.9 128.155 102.2 125.595 100.8C123.075 99.36 121.075 97.42 119.595 94.98C118.155 92.54 117.435 89.88 117.435 87ZM125.355 82.14C125.355 83.98 125.655 86.08 126.255 88.44L138.435 85.32C138.235 83.48 137.795 81.6 137.115 79.68C136.435 77.76 135.515 76.14 134.355 74.82C133.235 73.5 131.895 72.84 130.335 72.84C128.855 72.84 127.655 73.72 126.735 75.48C125.815 77.2 125.355 79.42 125.355 82.14ZM152.761 92.82C154.441 94.94 156.281 96.82 158.281 98.46C160.281 100.1 161.941 101.08 163.261 101.4C164.221 101.4 165.041 101.1 165.721 100.5C166.441 99.9 166.801 99.16 166.801 98.28C166.801 97.2 166.181 96.12 164.941 95.04C163.741 93.92 161.901 92.52 159.421 90.84C157.181 89.28 155.341 87.94 153.901 86.82C152.501 85.66 151.301 84.38 150.301 82.98C149.301 81.58 148.801 80.1 148.801 78.54C148.801 76.22 149.761 74.4 151.681 73.08C153.601 71.76 156.441 71.1 160.201 71.1C162.881 71.1 165.361 71.28 167.641 71.64C169.961 72 171.701 72.4 172.861 72.84L168.901 81.18C167.061 78.9 165.281 76.94 163.561 75.3C161.841 73.66 160.521 72.76 159.601 72.6C158.641 72.6 157.801 72.9 157.081 73.5C156.401 74.1 156.061 74.84 156.061 75.72C156.061 76.96 156.721 78.18 158.041 79.38C159.361 80.54 161.361 82 164.041 83.76C166.201 85.2 167.941 86.44 169.261 87.48C170.581 88.48 171.701 89.62 172.621 90.9C173.581 92.18 174.061 93.5 174.061 94.86C174.061 97.22 173.121 99.16 171.241 100.68C169.361 102.16 166.741 102.9 163.381 102.9C160.381 102.9 157.481 102.72 154.681 102.36C151.881 102 149.921 101.6 148.801 101.16L152.761 92.82ZM183.061 102.9C181.621 102.9 180.381 102.38 179.341 101.34C178.301 100.3 177.781 99.06 177.781 97.62C177.781 96.22 178.301 95 179.341 93.96C180.381 92.92 181.621 92.4 183.061 92.4C184.461 92.4 185.681 92.92 186.721 93.96C187.761 95 188.281 96.22 188.281 97.62C188.281 99.06 187.761 100.3 186.721 101.34C185.681 102.38 184.461 102.9 183.061 102.9Z" fill="#FFC621"/>
</svg>
