<svg width="22" height="23" viewBox="0 0 22 23" fill="none" xmlns="http://www.w3.org/2000/svg">
<path d="M2 14.4231V21H19.5385V14.4231" stroke="#FFC621" stroke-width="2.92308"/>
<path d="M11.8028 0.966511C11.232 0.395745 10.3066 0.395745 9.73582 0.966512L0.434649 10.2677C-0.136117 10.8385 -0.136117 11.7638 0.43465 12.3346C1.00542 12.9054 1.93081 12.9054 2.50158 12.3346L10.7693 4.0669L19.037 12.3346C19.6078 12.9054 20.5332 12.9054 21.1039 12.3346C21.6747 11.7638 21.6747 10.8385 21.1039 10.2677L11.8028 0.966511ZM10.7693 17.3461L12.2308 17.3461L12.2308 1.99998L10.7693 1.99998L9.30775 1.99998L9.30775 17.3461L10.7693 17.3461Z" fill="white"/>
</svg>
