<svg width="100" height="100" viewBox="0 0 100 100" fill="none" xmlns="http://www.w3.org/2000/svg">
<path d="M26.6425 9.95079C26.5445 10.5534 25.9761 10.5761 26.0741 11.2128C27.1717 11.1218 27.8969 10.2009 29.0239 9.64382C28.5241 9.47328 28.2595 9.38233 27.9459 9.28C28.4653 8.47278 29.2003 7.98391 29.9353 7.81337C32.0913 7.31312 33.8847 5.73279 35.9232 5.11885C37.3246 4.68682 38.628 3.82275 40.1862 3.74317C42.2246 3.65221 44.0474 2.46981 45.6742 1.00317C46.7326 0.0481534 47.6539 0.0822611 48.4281 1.4352C48.6339 1.79902 48.9769 1.74217 49.2415 1.68533C50.3881 1.41247 51.6229 1.73081 52.6813 0.855372C53.4555 0.207323 54.6413 0.582509 55.0921 0.912218C56.5719 1.96956 58.1693 1.59437 59.6785 1.88998C64.0886 2.75404 68.4496 3.99329 72.5755 5.86922C74.7609 6.85835 76.8091 8.57511 78.7005 10.4965C80.9545 12.7931 82.9635 15.2375 84.5903 18.1253C88.1674 24.4807 90.2254 31.5069 91.1466 38.9538C91.6758 43.2969 91.862 47.7081 91.666 52.0853C91.5876 53.8362 91.4798 55.6894 90.8526 57.3493C90.5782 58.0883 90.7546 58.5431 91.2054 59.1115C89.853 58.9751 90.196 60.203 90.3822 60.6805C91.2348 62.8634 90.3822 65.0008 89.7648 66.7176C89.2062 68.2865 88.8142 69.9237 88.2948 71.4927C87.06 75.2445 85.8154 78.9964 83.7671 82.248C80.1509 87.9667 76.0937 93.1284 70.3704 96.1867C66.9208 98.0285 63.383 99.3815 59.5805 99.7226C54.8079 100.155 50.0353 100.12 45.292 99.1882C44.165 98.9722 43.8024 97.4373 42.5186 97.2554C40.0196 96.903 37.7166 95.6524 35.3646 94.6519C33.6397 93.9129 32.0913 93.0374 31.0819 91.0933C30.6997 90.3543 29.9157 89.7744 29.2003 89.3993C25.5547 87.512 22.6539 84.4764 19.8216 81.3271C19.3512 80.8041 18.9886 79.9173 18.0772 80.2697C17.9596 80.3152 17.6852 80.1106 17.5872 79.94C15.245 75.7561 12.3246 72.0043 10.7762 67.2405C9.60996 63.6479 9.23756 59.8278 8.33595 56.1896C7.72835 53.7452 8.63975 51.5851 8.37515 49.2771C8.25755 48.3107 8.33595 47.3102 8.09095 46.3438C7.60094 44.4906 8.37515 42.7284 8.58095 40.9775C9.04156 37.1575 9.86476 33.3829 11.0114 29.7106C11.2956 28.801 11.4818 27.323 12.0306 27.2321C13.775 26.9706 14.069 25.2425 14.7158 24.0601C16.8522 20.1831 19.7138 17.1475 22.6343 14.1574C22.7421 14.0437 22.8891 13.9528 22.9577 13.8163C24.1435 11.2469 24.1435 11.2469 26.6425 9.95079ZM74.9177 24.1169C75.5645 26.0383 76.2407 27.414 77.1717 28.6305C76.6327 27.1298 76.9855 25.1288 74.9177 24.1169ZM51.7797 80.2697C53.2791 80.5994 54.7589 80.6108 56.4445 80.0082C54.7099 79.5535 53.2301 79.6331 51.7797 80.2697Z" fill="#FFC621"/>
<path d="M39.2727 39.2814H31.7756V36.8153H39.2727V28.9236C39.2727 24.3202 39.7001 20.8018 40.5551 18.3686C41.41 15.9353 42.8897 14.2255 44.9941 13.239C47.0985 12.1868 50.1236 11.6607 54.0695 11.6607C56.7658 11.6607 60.1855 11.9566 64.3286 12.5485C68.5374 13.0746 72.0229 13.7323 74.785 14.5214L66.3015 28.2331C59.3305 19.4866 54.8915 14.916 52.9844 14.5214C52.6555 14.5214 52.4254 14.9489 52.2938 15.8038C52.1623 16.6587 52.0966 18.0398 52.0966 19.9469V36.8153H67.7812V39.2814H52.0966V74.3005L59.5936 86.1379H31.7756L39.2727 74.3005V39.2814Z" fill="white"/>
</svg>
